<svg id="visual" viewBox="0 0 900 600" width="900" height="600" xmlns="http://www.w3.org/2000/svg" xmlns:xlink="http://www.w3.org/1999/xlink" version="1.1"><path d="M0 73L12.5 95C25 117 50 161 75 180C100 199 125 193 150 187C175 181 200 175 225 179C250 183 275 197 300 190C325 183 350 155 375 150C400 145 425 163 450 166C475 169 500 157 525 151C550 145 575 145 600 162C625 179 650 213 675 211C700 209 725 171 750 152C775 133 800 133 825 137C850 141 875 149 887.5 153L900 157L900 0L887.5 0C875 0 850 0 825 0C800 0 775 0 750 0C725 0 700 0 675 0C650 0 625 0 600 0C575 0 550 0 525 0C500 0 475 0 450 0C425 0 400 0 375 0C350 0 325 0 300 0C275 0 250 0 225 0C200 0 175 0 150 0C125 0 100 0 75 0C50 0 25 0 12.5 0L0 0Z" fill="#a55356"></path><path d="M0 295L12.5 309C25 323 50 351 75 372C100 393 125 407 150 399C175 391 200 361 225 359C250 357 275 383 300 383C325 383 350 357 375 337C400 317 425 303 450 300C475 297 500 305 525 317C550 329 575 345 600 352C625 359 650 357 675 347C700 337 725 319 750 316C775 313 800 325 825 339C850 353 875 369 887.5 377L900 385L900 155L887.5 151C875 147 850 139 825 135C800 131 775 131 750 150C725 169 700 207 675 209C650 211 625 177 600 160C575 143 550 143 525 149C500 155 475 167 450 164C425 161 400 143 375 148C350 153 325 181 300 188C275 195 250 181 225 177C200 173 175 179 150 185C125 191 100 197 75 178C50 159 25 115 12.5 93L0 71Z" fill="#8e4649"></path><path d="M0 391L12.5 399C25 407 50 423 75 439C100 455 125 471 150 462C175 453 200 419 225 418C250 417 275 449 300 452C325 455 350 429 375 414C400 399 425 395 450 397C475 399 500 407 525 409C550 411 575 407 600 410C625 413 650 423 675 416C700 409 725 385 750 384C775 383 800 405 825 423C850 441 875 455 887.5 462L900 469L900 383L887.5 375C875 367 850 351 825 337C800 323 775 311 750 314C725 317 700 335 675 345C650 355 625 357 600 350C575 343 550 327 525 315C500 303 475 295 450 298C425 301 400 315 375 335C350 355 325 381 300 381C275 381 250 355 225 357C200 359 175 389 150 397C125 405 100 391 75 370C50 349 25 321 12.5 307L0 293Z" fill="#77393c"></path><path d="M0 523L12.5 520C25 517 50 511 75 516C100 521 125 537 150 541C175 545 200 537 225 535C250 533 275 537 300 540C325 543 350 545 375 546C400 547 425 547 450 550C475 553 500 559 525 554C550 549 575 533 600 532C625 531 650 545 675 546C700 547 725 535 750 531C775 527 800 531 825 531C850 531 875 527 887.5 525L900 523L900 467L887.5 460C875 453 850 439 825 421C800 403 775 381 750 382C725 383 700 407 675 414C650 421 625 411 600 408C575 405 550 409 525 407C500 405 475 397 450 395C425 393 400 397 375 412C350 427 325 453 300 450C275 447 250 415 225 416C200 417 175 451 150 460C125 469 100 453 75 437C50 421 25 405 12.5 397L0 389Z" fill="#612c30"></path><path d="M0 601L12.5 601C25 601 50 601 75 601C100 601 125 601 150 601C175 601 200 601 225 601C250 601 275 601 300 601C325 601 350 601 375 601C400 601 425 601 450 601C475 601 500 601 525 601C550 601 575 601 600 601C625 601 650 601 675 601C700 601 725 601 750 601C775 601 800 601 825 601C850 601 875 601 887.5 601L900 601L900 521L887.5 523C875 525 850 529 825 529C800 529 775 525 750 529C725 533 700 545 675 544C650 543 625 529 600 530C575 531 550 547 525 552C500 557 475 551 450 548C425 545 400 545 375 544C350 543 325 541 300 538C275 535 250 531 225 533C200 535 175 543 150 539C125 535 100 519 75 514C50 509 25 515 12.5 518L0 521Z" fill="#4c2024"></path></svg>